<svg width="15" height="15" viewBox="0 0 15 15" fill="none" xmlns="http://www.w3.org/2000/svg">
<path d="M13.125 15H1.875C1.35742 15 0.915527 14.8169 0.549316 14.4507C0.183105 14.0845 0 13.6426 0 13.125V1.875C0 1.35742 0.183105 0.915527 0.549316 0.549316C0.915527 0.183105 1.35742 0 1.875 0H13.125C13.6426 0 14.0845 0.183105 14.4507 0.549316C14.8169 0.915527 15 1.35742 15 1.875V13.125C15 13.6426 14.8169 14.0845 14.4507 14.4507C14.0845 14.8169 13.6426 15 13.125 15ZM11.9092 3.75C11.8506 3.7793 11.7627 3.83545 11.6455 3.91846C11.5283 4.00146 11.4331 4.06494 11.3599 4.10889C11.2866 4.15283 11.1963 4.19922 11.0889 4.24805C10.9814 4.29688 10.8789 4.33105 10.7812 4.35059C10.4199 3.9502 9.97559 3.75 9.44824 3.75C8.30566 3.75 7.73438 4.22852 7.73438 5.18555V6.06445C6.16211 5.97656 4.95605 5.39551 4.11621 4.32129C3.87207 4.5752 3.75 4.85352 3.75 5.15625C3.75 5.80078 3.98926 6.28906 4.46777 6.62109C4.39941 6.62109 4.31396 6.62598 4.21143 6.63574C4.10889 6.64551 4.02588 6.64551 3.9624 6.63574C3.89893 6.62598 3.82812 6.60156 3.75 6.5625C3.75 7.01172 3.86963 7.38525 4.10889 7.68311C4.34814 7.98096 4.67773 8.17383 5.09766 8.26172C5 8.37891 4.86328 8.4375 4.6875 8.4375C4.53125 8.4375 4.39453 8.39355 4.27734 8.30566C4.27734 8.68652 4.46045 8.98193 4.82666 9.19189C5.19287 9.40186 5.60547 9.51172 6.06445 9.52148C5.88867 9.78516 5.63232 9.98291 5.29541 10.1147C4.9585 10.2466 4.59961 10.3125 4.21875 10.3125C4.08203 10.3125 3.89404 10.2783 3.65479 10.21C3.41553 10.1416 3.29102 10.1074 3.28125 10.1074C3.4375 10.4199 3.75732 10.6885 4.24072 10.9131C4.72412 11.1377 5.33691 11.25 6.0791 11.25C6.7334 11.25 7.34375 11.1353 7.91016 10.9058C8.47656 10.6763 8.95996 10.3711 9.36035 9.99023C9.76074 9.60938 10.105 9.1748 10.3931 8.68652C10.6812 8.19824 10.896 7.69287 11.0376 7.17041C11.1792 6.64795 11.25 6.13281 11.25 5.625C11.25 5.60547 11.3086 5.56396 11.4258 5.50049C11.543 5.43701 11.6797 5.354 11.8359 5.25146C11.9922 5.14893 12.1094 5.03418 12.1875 4.90723C11.6602 4.90723 11.3086 4.91699 11.1328 4.93652C11.4746 4.73145 11.7334 4.33594 11.9092 3.75Z" fill="black"/>
</svg>
